<svg width="26" height="26" viewBox="0 0 26 26" fill="none" xmlns="http://www.w3.org/2000/svg">
<path d="M16.0762 12.7508H24.7482M16.0762 6.75078H24.7482M4.21484 9.15078L9.54818 16.3508M9.54818 9.15078L4.21484 16.3508M16.0868 1.05078V18.7508H24.7482" stroke="#2690E0" stroke-width="1.5" stroke-linecap="round" stroke-linejoin="round"/>
<path d="M7.41797 19.95V23.55C7.41797 23.8683 7.53035 24.1735 7.73039 24.3985C7.93043 24.6236 8.20174 24.75 8.48464 24.75H23.6846C23.9675 24.75 24.2388 24.6236 24.4389 24.3985C24.6389 24.1735 24.7513 23.8683 24.7513 23.55V1.95C24.7513 1.63174 24.6389 1.32652 24.4389 1.10147C24.2388 0.876428 23.9675 0.75 23.6846 0.75H8.48464C8.20174 0.75 7.93043 0.876428 7.73039 1.10147C7.53035 1.32652 7.41797 1.63174 7.41797 1.95V5.55" stroke="#2690E0" stroke-width="1.5" stroke-linecap="round" stroke-linejoin="round"/>
<path d="M1.81667 5.55078H12.4833C12.4833 5.55078 13.55 5.55078 13.55 6.75078V18.7508C13.55 18.7508 13.55 19.9508 12.4833 19.9508H1.81667C1.81667 19.9508 0.75 19.9508 0.75 18.7508V6.75078C0.75 6.75078 0.75 5.55078 1.81667 5.55078Z" stroke="#2690E0" stroke-width="1.5" stroke-linecap="round" stroke-linejoin="round"/>
</svg>
